<svg width="263" height="51" viewBox="0 0 263 51" fill="none" xmlns="http://www.w3.org/2000/svg">
<path fill-rule="evenodd" clip-rule="evenodd" d="M20.0493 41.7676L39.8369 50.0176L20.0493 0.0175781L0.261719 50.0176L20.0493 41.7676ZM7.40723 42.5641L20.0493 37.2908L32.6914 42.5641L20.0493 10.6339L7.40723 42.5641Z" fill="#FF3399"/>
<path fill-rule="evenodd" clip-rule="evenodd" d="M56.5039 40.0163H60.7713V10.0168H56.5039V40.0163Z" fill="#1D0058"/>
<path fill-rule="evenodd" clip-rule="evenodd" d="M94.2228 14.2528H81.7762V40.0163H77.4851V14.2528H65.0385V10.0168H94.2406L94.2228 14.2528Z" fill="#1D0058"/>
<path fill-rule="evenodd" clip-rule="evenodd" d="M125.257 14.2527H102.734V35.7864H125.257V14.2527ZM102.734 10.0168C101.613 10.0056 100.533 10.4454 99.7319 11.2397C98.9307 12.0339 98.4736 13.1176 98.4611 14.2527V35.7864C98.4673 36.3482 98.5827 36.9033 98.8008 37.4199C99.0189 37.9365 99.3354 38.4046 99.7323 38.7974C100.129 39.1902 100.598 39.5 101.114 39.7091C101.629 39.9183 102.179 40.0227 102.734 40.0163H125.257C125.812 40.0227 126.363 39.9183 126.878 39.7091C127.393 39.5 127.862 39.1902 128.259 38.7974C128.656 38.4046 128.972 37.9365 129.19 37.4199C129.409 36.9033 129.524 36.3482 129.53 35.7864V14.2527C129.518 13.1176 129.061 12.0339 128.259 11.2397C127.458 10.4454 126.378 10.0056 125.257 10.0168H102.734Z" fill="#1D0058"/>
<path fill-rule="evenodd" clip-rule="evenodd" d="M134.278 10.0168H139.274L160.564 34.0164V10.0168H164.831V40.0163H159.841L138.551 15.7947V40.0163H134.278V10.0168Z" fill="#1D0058"/>
<path fill-rule="evenodd" clip-rule="evenodd" d="M169.603 40.0163H173.858V10.0168H169.591L169.603 40.0163Z" fill="#1D0058"/>
<path fill-rule="evenodd" clip-rule="evenodd" d="M178.636 14.2527C178.641 13.6909 178.756 13.1357 178.973 12.6188C179.19 12.1019 179.506 11.6334 179.903 11.24C180.299 10.8467 180.768 10.5362 181.283 10.3263C181.797 10.1164 182.348 10.0113 182.903 10.0168H206.249V14.2527H182.903V35.7864H206.249V40.0163H182.903C182.348 40.0227 181.798 39.9182 181.283 39.709C180.768 39.4998 180.299 39.1899 179.903 38.797C179.507 38.4041 179.191 37.936 178.973 37.4194C178.756 36.9028 178.641 36.3479 178.636 35.7864V14.2527Z" fill="#1D0058"/>
<path fill-rule="evenodd" clip-rule="evenodd" d="M210.06 14.2527C210.065 13.6909 210.18 13.1357 210.397 12.6188C210.615 12.1019 210.93 11.6334 211.327 11.24C211.723 10.8467 212.192 10.5362 212.707 10.3263C213.221 10.1164 213.772 10.0113 214.327 10.0168H239.291V14.2527H214.327V22.4906H235.972C237.088 22.4777 238.164 22.9121 238.964 23.6989C239.765 24.4858 240.225 25.5612 240.246 26.6905V35.7864C240.24 36.3482 240.124 36.9033 239.906 37.4199C239.688 37.9365 239.371 38.4046 238.975 38.7974C238.578 39.1902 238.108 39.5 237.593 39.7091C237.078 39.9183 236.527 40.0227 235.972 40.0163H211.008V35.7864H235.972V26.7205H214.327C213.212 26.7318 212.138 26.2967 211.339 25.5101C210.54 24.7234 210.08 23.6489 210.06 22.5206V14.2527Z" fill="#1D0058"/>
<path d="M252.057 16.8389H253.111C253.632 16.8389 254.049 16.7054 254.361 16.4385C254.68 16.165 254.84 15.82 254.84 15.4033C254.84 14.915 254.7 14.5667 254.42 14.3584C254.14 14.1436 253.697 14.0361 253.092 14.0361H252.057V16.8389ZM256.295 15.3643C256.295 15.8851 256.155 16.3473 255.875 16.751C255.602 17.1481 255.214 17.4443 254.713 17.6396L257.037 21.4971H255.396L253.375 18.04H252.057V21.4971H250.611V12.7959H253.16C254.241 12.7959 255.032 13.0075 255.533 13.4307C256.041 13.8538 256.295 14.4984 256.295 15.3643ZM245.973 17.1416C245.973 15.8395 246.298 14.6188 246.949 13.4795C247.6 12.3402 248.495 11.4417 249.635 10.7842C250.774 10.1266 252.001 9.79785 253.316 9.79785C254.618 9.79785 255.839 10.1234 256.979 10.7744C258.118 11.4255 259.016 12.3206 259.674 13.46C260.331 14.5993 260.66 15.8265 260.66 17.1416C260.66 18.4242 260.344 19.6286 259.713 20.7549C259.081 21.8812 258.196 22.7829 257.057 23.46C255.917 24.137 254.671 24.4756 253.316 24.4756C251.969 24.4756 250.725 24.1403 249.586 23.4697C248.447 22.7926 247.558 21.891 246.92 20.7646C246.288 19.6383 245.973 18.4307 245.973 17.1416ZM246.998 17.1416C246.998 18.2679 247.281 19.3226 247.848 20.3057C248.414 21.2822 249.186 22.0537 250.162 22.6201C251.145 23.18 252.197 23.46 253.316 23.46C254.449 23.46 255.501 23.1768 256.471 22.6104C257.441 22.0439 258.209 21.279 258.775 20.3154C259.348 19.3454 259.635 18.2874 259.635 17.1416C259.635 16.0088 259.352 14.9574 258.785 13.9873C258.219 13.0173 257.451 12.249 256.48 11.6826C255.517 11.1097 254.462 10.8232 253.316 10.8232C252.184 10.8232 251.132 11.1064 250.162 11.6729C249.192 12.2393 248.421 13.0075 247.848 13.9775C247.281 14.9411 246.998 15.9958 246.998 17.1416Z" fill="#1D0058"/>
</svg>
